Coordinates
version=1
nRows=43
nColumns=12
inDegrees=yes

Units are S.I. units (second, meters, Newtons, ...)
Angles are in degrees

endheader
time	SC_y	SC_z	SC_x	AC_y	AC_z	AC_x	GH_y	GH_z	GH_yy	EL_x	PS_y
       0.0              -50.91           14.7          35.19          59.42          1.715         -14.48         -95.34          65.46          28.79          107.8          108.2
    0.0321              -50.91           14.7          35.19          59.42          1.714         -14.48         -95.34          65.45          28.79          107.8          108.2
   0.06419              -50.91           14.7          35.19          59.42          1.713         -14.48         -95.34          65.44          28.79          107.8          108.2
   0.09629               -50.9           14.7           35.2          59.42          1.711         -14.47         -95.34          65.43          28.78          107.8          108.2
    0.1284               -50.9           14.7           35.2          59.42           1.71         -14.47         -95.33          65.42          28.78          107.8          108.2
    0.1605               -50.9           14.7          35.21          59.42          1.709         -14.47         -95.33          65.41          28.78          107.8          108.2
    0.1926               -50.9          14.69          35.21          59.42          1.707         -14.46         -95.33           65.4          28.78          107.7          108.2
    0.2247              -50.89          14.69          35.22          59.43          1.705         -14.46         -95.33          65.39          28.78          107.7          108.2
    0.2568              -50.89          14.69          35.22          59.43          1.704         -14.46         -95.32          65.38          28.78          107.7          108.2
    0.2889              -50.89          14.69          35.23          59.43          1.702         -14.45         -95.32          65.37          28.78          107.7          108.2
     0.321              -50.88          14.69          35.23          59.43            1.7         -14.45         -95.32          65.35          28.78          107.7          108.2
    0.3531              -50.88          14.69          35.24          59.43          1.698         -14.44         -95.31          65.34          28.78          107.7          108.2
    0.3852              -50.88          14.69          35.24          59.43          1.695         -14.44         -95.31          65.32          28.78          107.7          108.2
    0.4173              -50.87          14.69          35.25          59.43          1.693         -14.43          -95.3           65.3          28.77          107.7          108.2
    0.4494              -50.87          14.69          35.26          59.43           1.69         -14.43          -95.3          65.28          28.77          107.7          108.2
    0.4815              -50.86          14.69          35.27          59.43          1.687         -14.42          -95.3          65.26          28.77          107.7          108.2
    0.5136              -50.86          14.68          35.28          59.43          1.684         -14.41         -95.29          65.24          28.77          107.6          108.2
    0.5457              -50.85          14.68          35.29          59.43           1.68          -14.4         -95.28          65.21          28.77          107.6          108.2
    0.5778              -50.85          14.68           35.3          59.43          1.676          -14.4         -95.28          65.19          28.76          107.6          108.2
    0.6098              -50.84          14.68          35.31          59.43          1.672         -14.39         -95.27          65.16          28.76          107.6          108.2
    0.6419              -50.83          14.68          35.33          59.44          1.667         -14.38         -95.26          65.12          28.76          107.6          108.2
     0.674              -50.82          14.67          35.34          59.44          1.662         -14.37         -95.25          65.09          28.76          107.6          108.2
    0.7061              -50.81          14.67          35.36          59.44          1.657         -14.35         -95.24          65.05          28.75          107.5          108.2
    0.7382               -50.8          14.67          35.37          59.44           1.65         -14.34         -95.23           65.0          28.75          107.5          108.3
    0.7703              -50.79          14.67          35.39          59.44          1.643         -14.32         -95.22          64.95          28.75          107.5          108.3
    0.8024              -50.78          14.66          35.42          59.45          1.635         -14.31         -95.21           64.9          28.74          107.5          108.3
    0.8345              -50.76          14.66          35.44          59.45          1.627         -14.29         -95.19          64.84          28.74          107.4          108.3
    0.8666              -50.75          14.65          35.47          59.45          1.617         -14.27         -95.18          64.77          28.73          107.4          108.3
    0.8987              -50.73          14.65           35.5          59.45          1.606         -14.24         -95.16          64.69          28.72          107.3          108.3
    0.9308              -50.71          14.64          35.54          59.46          1.593         -14.21         -95.14           64.6          28.72          107.3          108.3
    0.9629              -50.68          14.64          35.58          59.46          1.579         -14.18         -95.11           64.5          28.71          107.2          108.3
     0.995              -50.66          14.63          35.63          59.47          1.562         -14.14         -95.09          64.38           28.7          107.1          108.4
     1.027              -50.63          14.62          35.68          59.47          1.543          -14.1         -95.05          64.25          28.69          107.1          108.4
     1.059              -50.59          14.61          35.75          59.48          1.521         -14.05         -95.02          64.09          28.68          107.0          108.4
     1.091              -50.55           14.6          35.82          59.48          1.495          -14.0         -94.97          63.91          28.66          106.9          108.5
     1.123               -50.5          14.59          35.91          59.49          1.465         -13.93         -94.92           63.7          28.64          106.7          108.5
     1.156              -50.44          14.57          36.01           59.5          1.429         -13.85         -94.86          63.44          28.62          106.6          108.6
     1.188              -50.36          14.55          36.14          59.52          1.385         -13.75         -94.79          63.13           28.6          106.4          108.6
      1.22              -50.28          14.53          36.29          59.53          1.333         -13.64          -94.7          62.76          28.57          106.2          108.7
     1.252              -50.17           14.5          36.48          59.55          1.269          -13.5         -94.59          62.31          28.53          105.9          108.8
     1.284              -50.04          14.46           36.7          59.57          1.189         -13.32         -94.46          61.75          28.48          105.6          108.9
     1.316              -49.88          14.42          36.99           59.6          1.091          -13.1         -94.29          61.05          28.43          105.2          109.0
     1.348              -49.67          14.36          37.35          59.63         0.9661         -12.83         -94.09          60.18          28.36          104.7          109.2
